<mxfile host="app.diagrams.net" agent="Mozilla/5.0 (Windows NT 10.0; Win64; x64) AppleWebKit/537.36 (KHTML, like Gecko) Chrome/132.0.0.0 Safari/537.36 Edg/132.0.0.0" version="26.0.10">
  <diagram name="Page-1" id="G9ozgS4Jb92wQeqAHuRP">
    <mxGraphModel dx="976" dy="418" grid="1" gridSize="10" guides="1" tooltips="1" connect="1" arrows="1" fold="1" page="1" pageScale="1" pageWidth="850" pageHeight="1100" math="0" shadow="0">
      <root>
        <mxCell id="0" />
        <mxCell id="1" parent="0" />
        <mxCell id="p94vNTU9T4nclMIpOv3r-1" value="&lt;p style=&quot;margin:0px;margin-top:4px;text-align:center;&quot;&gt;&lt;b&gt;Hệ thống&lt;/b&gt;&lt;/p&gt;&lt;hr size=&quot;1&quot; style=&quot;border-style:solid;&quot;&gt;&lt;div style=&quot;height:2px;&quot;&gt;&lt;/div&gt;" style="verticalAlign=top;align=left;overflow=fill;html=1;whiteSpace=wrap;" parent="1" vertex="1">
          <mxGeometry x="260" width="340" height="300" as="geometry" />
        </mxCell>
        <mxCell id="p94vNTU9T4nclMIpOv3r-2" value="&lt;p style=&quot;margin:0px;margin-top:4px;text-align:center;&quot;&gt;&lt;b&gt;Người dùng&lt;/b&gt;&lt;/p&gt;&lt;hr size=&quot;1&quot; style=&quot;border-style:solid;&quot;&gt;&lt;div style=&quot;height:2px;&quot;&gt;&lt;/div&gt;" style="verticalAlign=top;align=left;overflow=fill;html=1;whiteSpace=wrap;" parent="1" vertex="1">
          <mxGeometry width="260" height="300" as="geometry" />
        </mxCell>
        <mxCell id="p94vNTU9T4nclMIpOv3r-3" value="" style="ellipse;html=1;shape=startState;fillColor=#000000;strokeColor=#ff0000;" parent="1" vertex="1">
          <mxGeometry x="40" y="45" width="30" height="30" as="geometry" />
        </mxCell>
        <mxCell id="p94vNTU9T4nclMIpOv3r-4" value="" style="edgeStyle=orthogonalEdgeStyle;rounded=0;orthogonalLoop=1;jettySize=auto;html=1;strokeColor=#FF0500;" parent="1" source="p94vNTU9T4nclMIpOv3r-3" target="p94vNTU9T4nclMIpOv3r-6" edge="1">
          <mxGeometry relative="1" as="geometry" />
        </mxCell>
        <mxCell id="p94vNTU9T4nclMIpOv3r-5" value="" style="edgeStyle=orthogonalEdgeStyle;rounded=0;orthogonalLoop=1;jettySize=auto;html=1;strokeColor=#FF0500;" parent="1" source="p94vNTU9T4nclMIpOv3r-6" target="p94vNTU9T4nclMIpOv3r-8" edge="1">
          <mxGeometry relative="1" as="geometry" />
        </mxCell>
        <mxCell id="p94vNTU9T4nclMIpOv3r-6" value="Xem ưu đãi" style="rounded=1;whiteSpace=wrap;html=1;arcSize=40;fontColor=#000000;fillColor=#ffffc0;strokeColor=#ff0000;" parent="1" vertex="1">
          <mxGeometry x="120" y="40" width="120" height="40" as="geometry" />
        </mxCell>
        <mxCell id="p94vNTU9T4nclMIpOv3r-7" style="edgeStyle=orthogonalEdgeStyle;rounded=0;orthogonalLoop=1;jettySize=auto;html=1;entryX=0.5;entryY=0;entryDx=0;entryDy=0;strokeColor=#FF0500;" parent="1" source="p94vNTU9T4nclMIpOv3r-8" target="p94vNTU9T4nclMIpOv3r-10" edge="1">
          <mxGeometry relative="1" as="geometry">
            <Array as="points">
              <mxPoint x="380" y="100" />
              <mxPoint x="180" y="100" />
            </Array>
          </mxGeometry>
        </mxCell>
        <mxCell id="p94vNTU9T4nclMIpOv3r-8" value="Hiển thị danh sách ưu đãi" style="rounded=1;whiteSpace=wrap;html=1;arcSize=40;fontColor=#000000;fillColor=#ffffc0;strokeColor=#ff0000;" parent="1" vertex="1">
          <mxGeometry x="320" y="40" width="120" height="40" as="geometry" />
        </mxCell>
        <mxCell id="p94vNTU9T4nclMIpOv3r-9" style="edgeStyle=orthogonalEdgeStyle;rounded=0;orthogonalLoop=1;jettySize=auto;html=1;entryX=0;entryY=0.5;entryDx=0;entryDy=0;strokeColor=#FF0500;" parent="1" source="p94vNTU9T4nclMIpOv3r-10" target="p94vNTU9T4nclMIpOv3r-13" edge="1">
          <mxGeometry relative="1" as="geometry" />
        </mxCell>
        <mxCell id="p94vNTU9T4nclMIpOv3r-10" value="Chọn ưu đãi" style="rounded=1;whiteSpace=wrap;html=1;arcSize=40;fontColor=#000000;fillColor=#ffffc0;strokeColor=#ff0000;" parent="1" vertex="1">
          <mxGeometry x="120" y="120" width="120" height="40" as="geometry" />
        </mxCell>
        <mxCell id="p94vNTU9T4nclMIpOv3r-11" value="" style="edgeStyle=orthogonalEdgeStyle;rounded=0;orthogonalLoop=1;jettySize=auto;html=1;" parent="1" target="p94vNTU9T4nclMIpOv3r-16" edge="1">
          <mxGeometry relative="1" as="geometry">
            <mxPoint x="380" y="200" as="sourcePoint" />
          </mxGeometry>
        </mxCell>
        <mxCell id="p94vNTU9T4nclMIpOv3r-12" style="edgeStyle=orthogonalEdgeStyle;rounded=0;orthogonalLoop=1;jettySize=auto;html=1;entryX=0.5;entryY=0;entryDx=0;entryDy=0;strokeColor=#FF0500;" parent="1" source="p94vNTU9T4nclMIpOv3r-13" target="p94vNTU9T4nclMIpOv3r-16" edge="1">
          <mxGeometry relative="1" as="geometry" />
        </mxCell>
        <mxCell id="p94vNTU9T4nclMIpOv3r-13" value="Hiển thị thông tin ưu đãi" style="rounded=1;whiteSpace=wrap;html=1;arcSize=40;fontColor=#000000;fillColor=#ffffc0;strokeColor=#ff0000;" parent="1" vertex="1">
          <mxGeometry x="320" y="120" width="120" height="40" as="geometry" />
        </mxCell>
        <mxCell id="p94vNTU9T4nclMIpOv3r-14" value="Tên ưu đãi, thời gian bắt đầu / kết thúc ưu đãi, nội dung ưu đãi,&lt;div&gt;phạm vị ưu đãi&lt;/div&gt;" style="whiteSpace=wrap;html=1;shape=mxgraph.basic.document;align=center;" parent="1" vertex="1">
          <mxGeometry x="460" y="100" width="120" height="80" as="geometry" />
        </mxCell>
        <mxCell id="p94vNTU9T4nclMIpOv3r-15" value="" style="edgeStyle=orthogonalEdgeStyle;rounded=0;orthogonalLoop=1;jettySize=auto;html=1;strokeColor=#FF0500;" parent="1" source="p94vNTU9T4nclMIpOv3r-16" target="p94vNTU9T4nclMIpOv3r-18" edge="1">
          <mxGeometry relative="1" as="geometry" />
        </mxCell>
        <mxCell id="pbYZjC3CFeCecTC-TPnM-2" style="edgeStyle=orthogonalEdgeStyle;rounded=0;orthogonalLoop=1;jettySize=auto;html=1;entryX=0.5;entryY=1;entryDx=0;entryDy=0;strokeColor=light-dark(#FF0000,#FFFFFF);" edge="1" parent="1" source="p94vNTU9T4nclMIpOv3r-16" target="p94vNTU9T4nclMIpOv3r-10">
          <mxGeometry relative="1" as="geometry" />
        </mxCell>
        <mxCell id="p94vNTU9T4nclMIpOv3r-16" value="Xem thêm&lt;br&gt;ưu đãi khác" style="rhombus;whiteSpace=wrap;html=1;fontColor=#000000;fillColor=#ffffc0;strokeColor=#FF0000;" parent="1" vertex="1">
          <mxGeometry x="320" y="200" width="120" height="80" as="geometry" />
        </mxCell>
        <mxCell id="p94vNTU9T4nclMIpOv3r-18" value="" style="ellipse;html=1;shape=endState;fillColor=#000000;strokeColor=#ff0000;" parent="1" vertex="1">
          <mxGeometry x="490" y="225" width="30" height="30" as="geometry" />
        </mxCell>
        <mxCell id="p94vNTU9T4nclMIpOv3r-19" value="Đúng" style="text;html=1;align=center;verticalAlign=middle;whiteSpace=wrap;rounded=0;fontFamily=Helvetica;fontSize=12;fontColor=#000000;" parent="1" vertex="1">
          <mxGeometry x="280" y="210" width="60" height="30" as="geometry" />
        </mxCell>
        <mxCell id="p94vNTU9T4nclMIpOv3r-20" value="Sai" style="text;html=1;align=center;verticalAlign=middle;resizable=0;points=[];autosize=1;strokeColor=none;fillColor=none;" parent="1" vertex="1">
          <mxGeometry x="430" y="210" width="40" height="30" as="geometry" />
        </mxCell>
        <mxCell id="p94vNTU9T4nclMIpOv3r-21" value="" style="endArrow=none;dashed=1;html=1;dashPattern=1 3;strokeWidth=2;rounded=0;entryX=0;entryY=0.5;entryDx=0;entryDy=0;entryPerimeter=0;" parent="1" target="p94vNTU9T4nclMIpOv3r-14" edge="1">
          <mxGeometry width="50" height="50" relative="1" as="geometry">
            <mxPoint x="440" y="140" as="sourcePoint" />
            <mxPoint x="490" y="90" as="targetPoint" />
          </mxGeometry>
        </mxCell>
      </root>
    </mxGraphModel>
  </diagram>
</mxfile>
